Simulation
nRows=20
nColumns=15
endheader
time  TH_x TH_y TH_z SC_y  SC_z  SC_x  AC_y  AC_z  AC_x  GH_y  GH_z  GH_yy  EL_x  PS_y
2.8725  0.000000  0.000000  0.000000  -34.197945141175154  0.08994005122431012  -5.9668743735640675  44.29601406812372  -0.7778494126517409  2.3496487130113963  13.289234989543901  15.499197567925778  -7.987557424341319  14.129169351770265  120.000000
2.92995  0.000000  0.000000  0.000000  -35.398289235016854  1.1745455859844256  -6.413414287622921  42.97244069053264  1.411916976477397  2.025602152674111  27.997817285236493  11.779696808984133  -17.58818274423381  14.452012465797276  120.000000
2.9874  0.000000  0.000000  0.000000  -36.78436536135117  1.9593799551500948  -6.5937589300196935  42.094092452479074  3.13410463770266  1.862416246047375  45.90150935466647  9.500964056340761  -31.004087278586347  14.854547731109896  120.000000
3.0448500000000003  0.000000  0.000000  0.000000  -38.285486601228286  2.5475057721734062  -6.490947438691704  41.611054782682075  4.432244396854014  1.760173769807509  64.78105722954983  8.446366583714065  -46.114865289704774  15.306423037481856  120.000000
3.1023  0.000000  0.000000  0.000000  -39.81468955575797  3.002822767611226  -6.13779277943029  41.44217687099405  5.37512488146097  1.667697394492867  81.37925101529927  8.23139174236992  -59.67938890488695  15.771711959248314  120.000000
3.15975  0.000000  0.000000  0.000000  -41.28566009419683  3.3697727993627664  -5.598051498504779  41.50464194893336  6.036496930907169  1.569553208576418  94.09918730606756  8.455500819614048  -70.05638471273677  16.21930727911953  120.000000
3.2172  0.000000  0.000000  0.000000  -42.62231971194131  3.670019699238221  -4.937781118938246  41.71116725337122  6.4845398859379815  1.457740084297578  103.19526712999581  8.838032870563874  -77.39751049098925  16.633732503797805  120.000000
3.2746500000000003  0.000000  0.000000  0.000000  -43.768275988846895  3.9154613446840094  -4.208533403904564  41.97064799246487  6.769840659290163  1.3191395915658661  109.5472327423576  9.22577997182378  -82.44682584935327  17.01559170186735  120.000000
3.3321  0.000000  0.000000  0.000000  -44.688893033396845  4.119256514551405  -3.4510116170378193  42.20911958475054  6.92916293672697  1.1292450402939225  113.92055971438009  9.550744404158879  -85.83021389023175  17.375354450679133  120.000000
3.38955  0.000000  0.000000  0.000000  -45.37645683187333  4.297520059276533  -2.6969502856113143  42.377760127561665  6.982963255904526  0.8620498872221731  116.809731824875  9.79639873936749  -87.92885556955066  17.723919162123984  120.000000
3.447  0.000000  0.000000  0.000000  -45.84365807543856  4.458985884775243  -1.969815170772113  42.4505424702978  6.935383940389977  0.5079173806661718  118.503193699003  9.969729718898519  -88.95713260952752  18.068028262063482  120.000000
3.5044500000000003  0.000000  0.000000  0.000000  -46.108606162765746  4.6013311458856  -1.2895068632838045  42.42904112465689  6.784285510281782  0.07422295960876371  119.1622482091807  10.086440466991485  -89.04492431514979  18.409528646970966  120.000000
3.5619  0.000000  0.000000  0.000000  -46.184021219827635  4.716637014169007  -0.6767482747601037  42.33530928582101  6.530407364753135  -0.41849336782290897  118.90271898564752  10.164447947181507  -88.31151750568503  18.75064223858197  120.000000
3.61935  0.000000  0.000000  0.000000  -46.07151415142522  4.795637309582066  -0.15513540235458734  42.19715000892858  6.179487449590062  -0.9339004075911349  117.8484454381222  10.216463735551255  -86.90996698896078  19.094270139167396  120.000000
3.6768  0.000000  0.000000  0.000000  -45.76489516468029  4.82317258508272  0.2499026246703359  42.044861940458645  5.741955310632274  -1.4223877856403013  116.11862972575507  10.238916049513616  -85.00451748448724  19.4439117042471  120.000000
3.7342500000000003  0.000000  0.000000  0.000000  -45.246758956389904  4.789397592229408  0.5206224346336451  41.91866587536007  5.220096973481816  -1.824658518881146  113.8108547420067  10.204399249877248  -82.74381300448695  19.805774131222933  120.000000
3.7917  0.000000  0.000000  0.000000  -44.50977298739044  4.689570407653701  0.6607312705109057  41.88016131759898  4.598849603453429  -2.087366631726665  110.87540176724534  10.069291291355565  -80.13832061558489  20.183231490483596  120.000000
3.84915  0.000000  0.000000  0.000000  -43.566305271299335  4.515338665584307  0.6805878708773906  42.00476962294985  3.8643967140581768  -2.1625228647644605  107.02288867963344  9.785107213775706  -76.95199283008438  20.573107426273246  120.000000
3.9066  0.000000  0.000000  0.000000  -42.44503192531304  4.257521210446976  0.5865663192421352  42.36187209147909  3.012525356633939  -2.0003528106351194  101.68651265587164  9.32172414215944  -72.63603390266815  20.970883988284804  120.000000
3.9640500000000003  0.000000  0.000000  0.000000  -41.19159367979691  3.8922483733893043  0.37964914900299795  42.98633119602306  2.0530116678727803  -1.5510064164371438  93.9086635125582  8.692033862157082  -66.20439417913117  21.370344953258797  120.000000
